<svg width="50" height="50" viewBox="0 0 50 50" fill="none" xmlns="http://www.w3.org/2000/svg">
<path d="M25 3.125C27.072 3.125 29.0591 3.9481 30.5243 5.41323C31.9894 6.87836 32.8125 8.8655 32.8125 10.9375V12.5H17.1875V10.9375C17.1875 8.8655 18.0106 6.87836 19.4757 5.41323C20.9409 3.9481 22.928 3.125 25 3.125V3.125ZM35.9375 12.5V10.9375C35.9375 8.03669 34.7852 5.2547 32.734 3.20352C30.6828 1.15234 27.9008 0 25 0C22.0992 0 19.3172 1.15234 17.266 3.20352C15.2148 5.2547 14.0625 8.03669 14.0625 10.9375V12.5H3.125V43.75C3.125 45.4076 3.78348 46.9973 4.95558 48.1694C6.12769 49.3415 7.7174 50 9.375 50H40.625C42.2826 50 43.8723 49.3415 45.0444 48.1694C46.2165 46.9973 46.875 45.4076 46.875 43.75V12.5H35.9375Z" fill="black"/>
</svg>
