<svg width="100" height="100" viewBox="0 0 100 100" fill="none" xmlns="http://www.w3.org/2000/svg">
<path d="M68.726 14.958C60.6645 14.958 53.776 20.7042 49.9914 24.6657C46.2068 20.7042 39.3337 14.958 31.276 14.958C17.3876 14.958 7.69141 24.6388 7.69141 38.4965C7.69141 53.7657 19.7337 63.6349 31.3837 73.1811C36.8837 77.6926 42.576 82.3542 46.9414 87.5234C47.676 88.3888 48.7529 88.8888 49.8837 88.8888H50.1068C51.2414 88.8888 52.3145 88.3849 53.0453 87.5234C57.4183 82.3542 63.1068 77.6888 68.6106 73.1811C80.2568 63.6388 92.3068 53.7695 92.3068 38.4965C92.3068 24.6388 82.6106 14.958 68.726 14.958V14.958Z" fill="black"/>
</svg>
