<svg width="100" height="100" viewBox="0 0 100 100" fill="none" xmlns="http://www.w3.org/2000/svg">
<path d="M50.0004 62.2913C49.4448 62.2913 48.924 62.2038 48.4379 62.0288C47.9518 61.8566 47.5004 61.5621 47.0837 61.1455L27.8129 41.8746C27.049 41.1107 26.6851 40.1552 26.7212 39.008C26.7545 37.8635 27.1531 36.9093 27.917 36.1455C28.6809 35.3816 29.6531 34.9996 30.8337 34.9996C32.0143 34.9996 32.9865 35.3816 33.7504 36.1455L50.0004 52.3954L66.3545 36.0413C67.1184 35.2774 68.074 34.9121 69.2212 34.9454C70.3656 34.9816 71.3198 35.3816 72.0837 36.1455C72.8476 36.9093 73.2295 37.8816 73.2295 39.0621C73.2295 40.2427 72.8476 41.2149 72.0837 41.9788L52.917 61.1455C52.5004 61.5621 52.049 61.8566 51.5629 62.0288C51.0767 62.2038 50.5559 62.2913 50.0004 62.2913V62.2913Z" fill="#555555"/>
</svg>
