<svg width="100" height="100" viewBox="0 0 100 100" fill="none" xmlns="http://www.w3.org/2000/svg">
<path d="M49.9993 58.3337C54.6017 58.3337 58.3327 54.6027 58.3327 50.0003C58.3327 45.398 54.6017 41.667 49.9993 41.667C45.397 41.667 41.666 45.398 41.666 50.0003C41.666 54.6027 45.397 58.3337 49.9993 58.3337Z" fill="#555555"/>
<path d="M79.1673 58.3337C83.7697 58.3337 87.5007 54.6027 87.5007 50.0003C87.5007 45.398 83.7697 41.667 79.1673 41.667C74.5649 41.667 70.834 45.398 70.834 50.0003C70.834 54.6027 74.5649 58.3337 79.1673 58.3337Z" fill="#555555"/>
<path d="M20.8333 58.3337C25.4357 58.3337 29.1667 54.6027 29.1667 50.0003C29.1667 45.398 25.4357 41.667 20.8333 41.667C16.231 41.667 12.5 45.398 12.5 50.0003C12.5 54.6027 16.231 58.3337 20.8333 58.3337Z" fill="#555555"/>
</svg>
