<svg width="100" height="100" viewBox="0 0 100 100" fill="none" xmlns="http://www.w3.org/2000/svg">
<path fill-rule="evenodd" clip-rule="evenodd" d="M68.0207 62.0788L90.4373 84.4954C91.2253 85.2839 91.6677 86.3531 91.6673 87.4677C91.6669 88.5824 91.2237 89.6513 90.4353 90.4392C89.6468 91.2271 88.5776 91.6695 87.4629 91.6691C86.3483 91.6687 85.2794 91.2255 84.4915 90.4371L62.0748 68.0204C55.3736 73.2107 46.9468 75.6532 38.5087 74.851C30.0706 74.0489 22.255 70.0622 16.6519 63.7021C11.0487 57.3421 8.07897 49.0863 8.34673 40.6144C8.61449 32.1424 12.0996 24.0907 18.0932 18.0971C24.0868 12.1035 32.1385 8.61839 40.6105 8.35064C49.0824 8.08288 57.3381 11.0526 63.6982 16.6558C70.0583 22.2589 74.0449 30.0745 74.8471 38.5126C75.6493 46.9507 73.2068 55.3776 68.0165 62.0788H68.0207ZM41.6665 66.6663C48.2969 66.6663 54.6558 64.0323 59.3442 59.3439C64.0326 54.6555 66.6665 48.2967 66.6665 41.6663C66.6665 35.0358 64.0326 28.677 59.3442 23.9886C54.6558 19.3002 48.2969 16.6663 41.6665 16.6663C35.0361 16.6663 28.6773 19.3002 23.9888 23.9886C19.3004 28.677 16.6665 35.0358 16.6665 41.6663C16.6665 48.2967 19.3004 54.6555 23.9888 59.3439C28.6773 64.0323 35.0361 66.6663 41.6665 66.6663V66.6663Z" fill="black"/>
</svg>
